<?xml version="1.0" encoding="iso-8859-1"?>
<!-- Generator: Adobe Illustrator 18.0.0, SVG Export Plug-In . SVG Version: 6.00 Build 0)  -->
<!DOCTYPE svg PUBLIC "-//W3C//DTD SVG 1.1//EN" "http://www.w3.org/Graphics/SVG/1.1/DTD/svg11.dtd">
<svg version="1.1" id="Capa_1" xmlns="http://www.w3.org/2000/svg" xmlns:xlink="http://www.w3.org/1999/xlink" x="0px" y="0px"
	 viewBox="0 0 32 32" style="enable-background:new 0 0 32 32;" xml:space="preserve">
<g id="trash">
	<g>
		<path style="fill-rule:evenodd;clip-rule:evenodd;" d="M17,11h-2v14h2V11z M11,13H9v12h2V13z M23,13h-2v12h2V13z M31,4H21V1
			c0-0.552-0.448-1-1-1h-8c-0.552,0-1,0.448-1,1v3H1C0.448,4,0,4.448,0,5c0,0.552,0.448,1,1,1h2v24c0,1.105,0.896,2,2,2h22
			c1.104,0,2-0.895,2-2V6h2c0.552,0,1-0.448,1-1C32,4.448,31.552,4,31,4z M13,2h6v2h-6V2z M27,29c0,0.552-0.448,1-1,1H6
			c-0.552,0-1-0.448-1-1V6h22V29z"/>
	</g>
</g>
<g>
</g>
<g>
</g>
<g>
</g>
<g>
</g>
<g>
</g>
<g>
</g>
<g>
</g>
<g>
</g>
<g>
</g>
<g>
</g>
<g>
</g>
<g>
</g>
<g>
</g>
<g>
</g>
<g>
</g>
</svg>
